<mxfile host="app.diagrams.net" modified="2024-01-26T08:46:37.897Z" agent="Mozilla/5.0 (Windows NT 10.0; Win64; x64) AppleWebKit/537.36 (KHTML, like Gecko) Chrome/120.0.0.0 Safari/537.36" etag="r7IBX7ZKjnDVWdp_y16X" version="23.0.1" type="device">
  <diagram name="Page-1" id="e7e014a7-5840-1c2e-5031-d8a46d1fe8dd">
    <mxGraphModel dx="1050" dy="557" grid="1" gridSize="10" guides="1" tooltips="1" connect="1" arrows="1" fold="1" page="1" pageScale="1" pageWidth="1169" pageHeight="826" background="none" math="0" shadow="0">
      <root>
        <mxCell id="0" />
        <mxCell id="1" parent="0" />
        <mxCell id="2" value="Dosen Peneliti" style="swimlane;whiteSpace=wrap;startSize=23;" parent="1" vertex="1">
          <mxGeometry x="164.5" y="128" width="280" height="382" as="geometry" />
        </mxCell>
        <mxCell id="5" value="" style="ellipse;shape=startState;fillColor=#000000;strokeColor=#ff0000;" parent="2" vertex="1">
          <mxGeometry x="100" y="40" width="30" height="30" as="geometry" />
        </mxCell>
        <mxCell id="6" value="" style="edgeStyle=elbowEdgeStyle;elbow=horizontal;verticalAlign=bottom;endArrow=open;endSize=8;strokeColor=#FF0000;endFill=1;rounded=0" parent="2" source="5" edge="1">
          <mxGeometry x="100" y="40" as="geometry">
            <mxPoint x="115.5" y="110" as="targetPoint" />
          </mxGeometry>
        </mxCell>
        <mxCell id="fzwhOpoAzvVeXkAmGVvj-38" value="Mengupload dokumen laporan akhir" style="rounded=1;whiteSpace=wrap;html=1;" vertex="1" parent="2">
          <mxGeometry x="55.5" y="112" width="120" height="60" as="geometry" />
        </mxCell>
        <mxCell id="fzwhOpoAzvVeXkAmGVvj-45" value="Revisi laporan akhir" style="rounded=1;whiteSpace=wrap;html=1;" vertex="1" parent="2">
          <mxGeometry x="55.5" y="215" width="120" height="60" as="geometry" />
        </mxCell>
        <mxCell id="3" value="Admin" style="swimlane;whiteSpace=wrap" parent="1" vertex="1">
          <mxGeometry x="445" y="128" width="280" height="382" as="geometry" />
        </mxCell>
        <mxCell id="19" value="" style="endArrow=open;strokeColor=#FF0000;endFill=1;rounded=0" parent="3" edge="1">
          <mxGeometry relative="1" as="geometry">
            <mxPoint x="75" y="270" as="sourcePoint" />
          </mxGeometry>
        </mxCell>
        <mxCell id="24" value="" style="endArrow=open;strokeColor=#FF0000;endFill=1;rounded=0" parent="3" edge="1">
          <mxGeometry relative="1" as="geometry">
            <mxPoint x="130" y="245" as="sourcePoint" />
          </mxGeometry>
        </mxCell>
        <mxCell id="fzwhOpoAzvVeXkAmGVvj-42" style="edgeStyle=orthogonalEdgeStyle;rounded=0;orthogonalLoop=1;jettySize=auto;html=1;entryX=0.5;entryY=0;entryDx=0;entryDy=0;" edge="1" parent="3" source="fzwhOpoAzvVeXkAmGVvj-39" target="fzwhOpoAzvVeXkAmGVvj-41">
          <mxGeometry relative="1" as="geometry" />
        </mxCell>
        <mxCell id="fzwhOpoAzvVeXkAmGVvj-39" value="Mereview laporan akhir dan memberi keputusan" style="rounded=1;whiteSpace=wrap;html=1;" vertex="1" parent="3">
          <mxGeometry x="80" y="112" width="120" height="60" as="geometry" />
        </mxCell>
        <mxCell id="fzwhOpoAzvVeXkAmGVvj-49" style="edgeStyle=orthogonalEdgeStyle;rounded=0;orthogonalLoop=1;jettySize=auto;html=1;entryX=0.5;entryY=0;entryDx=0;entryDy=0;" edge="1" parent="3" source="fzwhOpoAzvVeXkAmGVvj-41" target="38">
          <mxGeometry relative="1" as="geometry" />
        </mxCell>
        <mxCell id="fzwhOpoAzvVeXkAmGVvj-50" value="Ya" style="edgeLabel;html=1;align=center;verticalAlign=middle;resizable=0;points=[];" vertex="1" connectable="0" parent="fzwhOpoAzvVeXkAmGVvj-49">
          <mxGeometry x="-0.1489" y="1" relative="1" as="geometry">
            <mxPoint as="offset" />
          </mxGeometry>
        </mxCell>
        <mxCell id="fzwhOpoAzvVeXkAmGVvj-41" value="Terima?" style="rhombus;whiteSpace=wrap;html=1;" vertex="1" parent="3">
          <mxGeometry x="100" y="205" width="80" height="80" as="geometry" />
        </mxCell>
        <mxCell id="38" value="" style="ellipse;shape=endState;fillColor=#000000;strokeColor=#ff0000" parent="3" vertex="1">
          <mxGeometry x="125" y="332" width="30" height="30" as="geometry" />
        </mxCell>
        <mxCell id="fzwhOpoAzvVeXkAmGVvj-40" style="edgeStyle=orthogonalEdgeStyle;rounded=0;orthogonalLoop=1;jettySize=auto;html=1;entryX=0;entryY=0.5;entryDx=0;entryDy=0;" edge="1" parent="1" source="fzwhOpoAzvVeXkAmGVvj-38" target="fzwhOpoAzvVeXkAmGVvj-39">
          <mxGeometry relative="1" as="geometry" />
        </mxCell>
        <mxCell id="fzwhOpoAzvVeXkAmGVvj-46" style="edgeStyle=orthogonalEdgeStyle;rounded=0;orthogonalLoop=1;jettySize=auto;html=1;entryX=1;entryY=0.5;entryDx=0;entryDy=0;" edge="1" parent="1" source="fzwhOpoAzvVeXkAmGVvj-41" target="fzwhOpoAzvVeXkAmGVvj-45">
          <mxGeometry relative="1" as="geometry">
            <mxPoint x="340" y="380" as="targetPoint" />
          </mxGeometry>
        </mxCell>
        <mxCell id="fzwhOpoAzvVeXkAmGVvj-48" value="Tidak" style="edgeLabel;html=1;align=center;verticalAlign=middle;resizable=0;points=[];" vertex="1" connectable="0" parent="fzwhOpoAzvVeXkAmGVvj-46">
          <mxGeometry x="-0.7054" y="3" relative="1" as="geometry">
            <mxPoint x="-5" y="-3" as="offset" />
          </mxGeometry>
        </mxCell>
        <mxCell id="fzwhOpoAzvVeXkAmGVvj-47" style="rounded=0;orthogonalLoop=1;jettySize=auto;html=1;exitX=1;exitY=0;exitDx=0;exitDy=0;entryX=0;entryY=0.5;entryDx=0;entryDy=0;" edge="1" parent="1" source="fzwhOpoAzvVeXkAmGVvj-45" target="fzwhOpoAzvVeXkAmGVvj-39">
          <mxGeometry relative="1" as="geometry" />
        </mxCell>
      </root>
    </mxGraphModel>
  </diagram>
</mxfile>
